<?xml version="1.0" standalone="no"?>
<!DOCTYPE svg PUBLIC "-//W3C//DTD SVG 20010904//EN"
 "http://www.w3.org/TR/2001/REC-SVG-20010904/DTD/svg10.dtd">
<svg version="1.0" xmlns="http://www.w3.org/2000/svg"
 width="480.000000pt" height="480.000000pt" viewBox="0 0 480.000000 480.000000"
 preserveAspectRatio="xMidYMid meet">

<g transform="translate(0.000000,480.000000) scale(0.100000,-0.100000)"
fill="#000000" stroke="none">
<path d="M2355 4775 l-25 -24 0 -341 c0 -326 -1 -340 -19 -340 -32 0 -40 -23
-43 -119 l-3 -93 -83 -24 c-149 -43 -266 -116 -372 -231 -143 -156 -210 -338
-210 -569 l0 -104 801 0 802 0 -6 138 c-9 233 -74 396 -216 546 -103 107 -220
179 -363 220 l-83 24 -3 93 c-3 96 -11 119 -43 119 -17 0 -19 9 -19 84 l0 85
35 -15 c65 -27 143 -28 290 -4 155 25 288 24 363 -4 l42 -15 0 234 0 234 -57
18 c-77 22 -211 22 -342 -1 -70 -12 -132 -17 -190 -14 -102 6 -141 21 -141 55
0 29 -42 73 -70 73 -11 0 -32 -11 -45 -25z"/>
<path d="M1000 2535 l0 -265 135 0 135 0 0 49 0 50 53 15 c28 8 283 76 565
151 l513 136 532 -141 c293 -77 547 -146 565 -151 30 -10 32 -13 32 -60 l0
-49 135 0 135 0 0 265 0 265 -1400 0 -1400 0 0 -265z"/>
<path d="M1888 2397 l-488 -131 0 -933 0 -933 200 0 200 0 0 765 0 765 200 0
200 0 0 -765 0 -765 200 0 200 0 0 765 0 765 200 0 200 0 0 -765 0 -765 200 0
200 0 0 933 0 934 -494 131 c-271 73 -502 132 -512 131 -11 -1 -238 -60 -506
-132z"/>
<path d="M0 1065 l0 -1065 408 0 407 0 200 200 c163 163 205 200 227 200 l28
0 0 865 0 865 -635 0 -635 0 0 -1065z m530 535 l0 -200 -130 0 -130 0 0 200 0
200 130 0 130 0 0 -200z m470 0 l0 -200 -135 0 -135 0 0 200 0 200 135 0 135
0 0 -200z m-470 -670 l0 -200 -130 0 -130 0 0 200 0 200 130 0 130 0 0 -200z
m470 0 l0 -201 -132 3 -133 3 -3 198 -2 197 135 0 135 0 0 -200z"/>
<path d="M3530 1265 l0 -865 28 0 c22 0 64 -37 227 -200 l200 -200 407 0 408
0 0 1065 0 1065 -635 0 -635 0 0 -865z m540 335 l0 -200 -135 0 -135 0 0 200
0 200 135 0 135 0 0 -200z m460 0 l0 -200 -130 0 -130 0 0 200 0 200 130 0
130 0 0 -200z m-462 -667 l-3 -198 -132 -3 -133 -3 0 201 0 200 135 0 135 0
-2 -197z m462 -3 l0 -200 -130 0 -130 0 0 200 0 200 130 0 130 0 0 -200z"/>
<path d="M1131 135 l-136 -135 1405 0 1405 0 -136 135 -135 135 -1134 0 -1134
0 -135 -135z"/>
</g>
</svg>
