<?xml version="1.0" standalone="no"?>
<!DOCTYPE svg PUBLIC "-//W3C//DTD SVG 20010904//EN"
 "http://www.w3.org/TR/2001/REC-SVG-20010904/DTD/svg10.dtd">
<svg version="1.0" xmlns="http://www.w3.org/2000/svg"
 width="512.000000pt" height="512.000000pt" viewBox="0 0 512.000000 512.000000"
 preserveAspectRatio="xMidYMid meet">

<g transform="translate(0.000000,512.000000) scale(0.100000,-0.100000)"
fill="#000000" stroke="none">
<path d="M653 5098 c-13 -14 -38 -81 -63 -167 -23 -80 -48 -154 -56 -165 -8
-12 -49 -41 -91 -66 -125 -74 -124 -121 2 -192 39 -22 78 -49 87 -61 9 -12 36
-89 59 -170 44 -155 62 -187 107 -187 57 0 69 21 122 215 17 61 38 121 48 135
10 14 43 39 73 57 97 57 110 71 107 112 -3 37 -4 38 -129 116 -51 31 -66 61
-104 195 -20 69 -41 138 -47 153 -20 51 -79 63 -115 25z m125 -455 l40 -38
-40 -38 c-22 -21 -48 -56 -57 -78 l-18 -40 -31 54 c-17 30 -45 65 -62 79 l-30
24 30 22 c17 13 44 48 61 78 l32 55 17 -40 c10 -21 36 -57 58 -78z"/>
<path d="M2480 5111 c-58 -19 -110 -53 -150 -98 -30 -35 -107 -180 -279 -528
-130 -264 -245 -494 -256 -512 -37 -63 -57 -68 -655 -154 -613 -88 -622 -90
-695 -171 -59 -65 -80 -120 -80 -213 0 -139 -4 -133 464 -588 335 -326 413
-407 427 -442 16 -44 16 -46 -81 -611 -100 -584 -104 -619 -73 -692 23 -53 77
-117 122 -146 l46 -29 0 -113 c0 -122 9 -156 47 -173 34 -15 47 -14 75 9 25
19 25 24 31 177 4 125 9 170 26 216 34 97 72 155 141 220 110 104 216 147 360
147 l75 0 48 -222 c52 -246 66 -275 141 -309 74 -34 131 -20 216 51 27 22 50
37 52 33 3 -4 4 -91 3 -193 -1 -102 -2 -283 -3 -402 l-2 -218 -285 0 -285 0 0
226 0 226 -54 56 c-43 45 -59 55 -86 55 -70 0 -92 -77 -40 -136 l30 -35 0
-196 0 -196 -164 0 c-140 0 -165 2 -170 16 -3 9 -6 62 -6 118 0 94 -2 104 -23
124 -29 27 -67 28 -98 3 -22 -18 -24 -28 -27 -128 -5 -164 19 -226 102 -264
39 -18 93 -19 1186 -19 1103 0 1147 1 1187 19 26 12 52 35 70 62 27 41 28 46
28 177 0 129 -1 134 -24 153 -32 26 -73 24 -99 -4 -20 -21 -22 -34 -22 -124 0
-56 -3 -108 -6 -117 -5 -14 -30 -16 -170 -16 l-164 0 0 196 0 196 30 35 c52
59 30 136 -40 136 -27 0 -43 -10 -86 -55 l-54 -56 0 -226 0 -226 -285 0 -285
0 0 411 0 411 49 -41 c86 -72 143 -86 217 -52 75 34 89 63 141 309 l48 222 75
0 c149 0 254 -44 366 -155 122 -120 154 -205 161 -428 6 -153 6 -158 31 -177
28 -23 41 -24 75 -9 38 17 47 51 47 174 l0 114 30 16 c44 23 97 79 124 134 47
92 47 99 -59 715 -97 565 -97 567 -81 611 14 35 92 116 427 442 468 455 464
449 464 588 0 93 -21 148 -80 213 -65 73 -111 88 -389 128 -268 38 -286 38
-307 -10 -15 -32 -4 -72 24 -90 12 -8 123 -29 247 -46 265 -38 303 -51 338
-120 28 -56 28 -105 -1 -151 -12 -20 -203 -213 -424 -428 -427 -416 -443 -436
-458 -541 -5 -34 18 -189 90 -609 63 -367 94 -576 90 -597 -5 -31 -48 -94 -64
-94 -4 0 -13 17 -20 38 -7 20 -28 63 -47 95 -84 145 -200 241 -366 303 -70 27
-82 28 -290 32 l-218 4 0 61 1 62 50 34 c128 87 224 247 253 422 6 36 7 36 66
42 140 15 239 117 240 246 0 29 -5 71 -12 93 -13 44 -72 116 -112 137 l-26 14
0 248 c0 276 -9 329 -71 422 -60 91 -179 169 -278 183 -40 5 -56 16 -121 80
-49 48 -96 83 -135 101 -59 27 -64 28 -240 28 -205 0 -252 -8 -370 -66 -129
-62 -218 -152 -285 -287 -53 -106 -60 -160 -60 -448 l0 -261 -26 -14 c-40 -21
-99 -93 -112 -137 -50 -167 53 -320 226 -338 l59 -7 17 -78 c32 -150 130 -302
245 -380 l50 -34 1 -62 0 -63 -193 0 c-216 0 -264 -8 -385 -65 -156 -74 -291
-219 -343 -368 -7 -20 -16 -37 -20 -37 -16 0 -59 63 -65 94 -4 22 27 226 91
597 72 422 95 575 90 609 -15 106 -31 124 -463 546 -224 218 -415 411 -424
428 -37 68 -8 169 60 209 26 15 165 39 595 102 406 59 575 88 608 102 98 44
111 64 383 617 193 390 260 517 284 538 59 49 145 49 204 0 24 -20 92 -148
284 -539 219 -445 259 -518 299 -557 61 -59 117 -79 308 -106 158 -22 159 -22
185 -3 37 27 42 81 10 110 -19 17 -53 25 -178 43 -160 22 -208 39 -240 83 -8
12 -124 243 -256 512 -261 527 -283 564 -378 612 -54 28 -167 40 -216 24z
m205 -1543 c17 -9 62 -49 100 -88 77 -79 110 -100 153 -100 86 0 177 -62 221
-152 l31 -61 0 -234 c0 -293 2 -291 -136 -98 -66 93 -104 137 -121 141 -17 5
-57 -9 -142 -49 -202 -96 -259 -108 -521 -117 -124 -4 -226 -8 -227 -9 -19 -9
-83 -77 -83 -87 0 -8 -7 -14 -15 -14 -22 0 -22 449 0 535 46 176 201 317 380
344 97 15 324 8 360 -11z m280 -865 l76 -108 -3 -235 c-3 -211 -6 -241 -25
-293 -48 -128 -155 -238 -280 -288 -49 -20 -76 -23 -173 -23 -97 0 -124 3
-173 23 -124 49 -232 161 -280 288 -19 52 -22 82 -25 298 -2 146 0 250 7 266
l10 27 203 4 c265 6 348 27 585 147 1 1 36 -47 78 -106z m-1035 -264 l0 -112
-47 6 c-120 13 -143 173 -30 206 78 23 77 24 77 -100z m1332 101 c118 -33 98
-193 -25 -207 l-47 -6 0 112 c0 124 -2 121 72 101z m-702 -935 c58 0 120 3
138 7 l32 8 0 -52 c0 -47 -5 -58 -82 -169 -46 -65 -85 -118 -88 -118 -3 0 -42
53 -87 118 -78 111 -83 122 -83 169 l0 52 33 -8 c17 -4 79 -7 137 -7z m-193
-314 c45 -65 83 -122 85 -127 4 -12 -152 -154 -169 -154 -6 0 -14 4 -17 8 -5
8 -86 374 -86 387 0 3 24 5 53 4 l52 0 82 -118z m573 114 c0 -13 -81 -379 -86
-387 -3 -4 -11 -8 -17 -8 -17 1 -173 142 -169 154 2 5 40 62 85 127 l82 118
53 0 c28 1 52 -1 52 -4z"/>
<path d="M4554 5036 c-15 -11 -33 -57 -64 -167 -27 -92 -52 -162 -66 -178 -12
-15 -46 -40 -76 -55 -70 -38 -98 -64 -98 -93 0 -40 17 -60 77 -94 64 -36 100
-64 115 -93 8 -14 88 -282 88 -293 0 -11 49 -43 66 -43 47 0 70 38 108 175 52
186 52 186 148 243 126 74 131 126 15 187 -100 54 -109 68 -158 238 -24 83
-51 159 -61 169 -22 22 -66 23 -94 4z m75 -401 c17 -30 44 -64 60 -76 l29 -21
-35 -31 c-19 -17 -46 -53 -60 -80 l-25 -50 -18 41 c-10 22 -36 58 -57 79 l-39
39 48 53 c26 29 51 63 54 77 3 13 8 24 9 24 2 0 17 -25 34 -55z"/>
<path d="M1516 4939 c-17 -14 -26 -30 -26 -50 0 -24 -4 -29 -24 -29 -38 0 -76
-37 -76 -74 0 -43 19 -66 60 -75 29 -6 35 -12 41 -41 9 -41 32 -60 74 -60 38
0 62 24 71 68 5 25 11 32 31 32 27 0 73 41 73 64 0 43 -43 86 -85 86 -8 0 -15
7 -15 15 0 27 -22 63 -47 74 -34 16 -47 14 -77 -10z"/>
<path d="M3691 4524 c-12 -15 -21 -37 -21 -50 0 -18 -6 -23 -32 -26 -86 -9
-85 -127 2 -145 21 -4 29 -12 33 -33 18 -87 136 -88 145 -2 3 26 8 32 26 32
13 0 35 9 50 21 52 41 23 129 -44 129 -27 0 -30 3 -30 30 0 67 -88 96 -129 44z"/>
<path d="M427 2542 c-9 -10 -20 -32 -23 -50 -5 -25 -12 -31 -37 -34 -86 -9
-83 -127 3 -145 21 -4 29 -12 33 -33 18 -87 136 -88 145 -2 3 26 8 32 26 32
38 0 76 37 76 74 0 43 -19 66 -60 75 -29 6 -35 12 -41 41 -4 19 -15 40 -25 47
-26 19 -78 16 -97 -5z"/>
<path d="M4745 2540 c-34 -13 -41 -29 -85 -180 -23 -80 -50 -156 -60 -169 -9
-14 -51 -44 -91 -67 -120 -68 -121 -120 -4 -186 39 -21 79 -49 91 -62 12 -13
38 -85 63 -174 26 -91 51 -158 62 -168 24 -22 77 -20 100 3 9 10 35 83 58 163
22 80 49 156 59 170 11 14 50 43 88 64 78 44 93 60 93 96 0 36 -15 52 -93 96
-38 21 -77 50 -88 64 -10 14 -37 90 -59 170 -23 80 -48 152 -57 161 -22 22
-52 29 -77 19z m39 -384 c3 -13 26 -47 52 -75 l46 -51 -46 -51 c-26 -28 -49
-62 -52 -75 -8 -33 -19 -30 -35 9 -7 17 -31 51 -52 75 l-40 42 40 43 c21 23
45 57 52 75 16 38 27 41 35 8z"/>
<path d="M302 1872 c-10 -10 -37 -86 -61 -169 -49 -170 -58 -184 -158 -238
-114 -60 -111 -113 9 -184 43 -25 84 -55 92 -67 8 -11 33 -85 56 -165 43 -152
66 -189 114 -189 25 0 62 30 70 57 3 10 19 68 36 128 17 61 33 118 36 128 10
32 56 78 107 103 67 34 97 66 97 103 0 33 -20 52 -109 104 -30 18 -63 43 -73
57 -10 14 -36 90 -59 170 -27 97 -47 151 -61 163 -26 22 -73 22 -96 -1z m126
-457 l41 -39 -33 -28 c-19 -15 -45 -50 -59 -78 l-25 -50 -30 53 c-17 30 -44
65 -60 79 l-30 25 29 22 c16 12 43 47 60 77 l32 55 17 -38 c9 -21 36 -56 58
-78z"/>
<path d="M4463 1060 c-25 -10 -43 -39 -43 -68 0 -15 -9 -21 -35 -26 -39 -8
-65 -38 -65 -76 0 -37 21 -61 60 -69 29 -6 35 -12 41 -41 9 -41 32 -60 75 -60
37 0 74 38 74 76 0 20 5 24 29 24 30 0 71 38 71 66 0 34 -25 65 -62 76 -21 6
-38 17 -38 24 0 26 -23 62 -47 73 -28 13 -30 13 -60 1z"/>
<path d="M773 600 c-25 -10 -43 -39 -43 -69 0 -14 -9 -21 -32 -26 -46 -10 -68
-33 -68 -70 0 -42 19 -65 60 -74 29 -6 35 -12 41 -40 9 -44 29 -62 69 -63 39
-1 80 38 80 78 0 20 5 24 29 24 32 0 71 39 71 70 0 28 -38 68 -70 75 -21 5
-30 13 -30 27 0 22 -52 78 -72 77 -7 0 -23 -4 -35 -9z"/>
</g>
</svg>
