<?xml version="1.0" standalone="no"?>
<!DOCTYPE svg PUBLIC "-//W3C//DTD SVG 20010904//EN"
 "http://www.w3.org/TR/2001/REC-SVG-20010904/DTD/svg10.dtd">
<svg version="1.0" xmlns="http://www.w3.org/2000/svg"
 width="512.000000pt" height="512.000000pt" viewBox="0 0 512.000000 512.000000"
 preserveAspectRatio="xMidYMid meet">

<g transform="translate(0.000000,512.000000) scale(0.100000,-0.100000)"
fill="#000000" stroke="none">
<path d="M2321 5110 c-497 -48 -990 -251 -1376 -565 -114 -92 -294 -274 -384
-387 -229 -287 -417 -675 -495 -1023 -49 -218 -60 -325 -60 -575 0 -250 11
-357 60 -575 79 -355 272 -749 509 -1040 92 -114 274 -294 387 -384 287 -229
675 -417 1023 -495 218 -49 325 -60 575 -60 250 0 357 11 575 60 261 58 603
204 828 353 389 259 688 599 893 1016 125 255 196 484 241 775 24 161 24 539
0 700 -45 291 -116 520 -241 775 -134 272 -283 480 -498 692 -211 209 -404
346 -673 478 -252 124 -486 197 -765 240 -126 19 -468 27 -599 15z m534 -406
c222 -30 432 -93 635 -190 145 -70 235 -125 380 -235 269 -204 499 -485 644
-789 143 -300 208 -590 208 -930 0 -340 -65 -630 -208 -930 -145 -304 -375
-585 -644 -789 -145 -110 -235 -165 -380 -235 -300 -143 -590 -208 -930 -208
-340 0 -630 65 -930 208 -304 145 -585 375 -789 644 -110 145 -165 235 -235
380 -143 300 -208 590 -208 930 0 340 65 630 208 930 205 428 565 795 990
1008 387 194 823 265 1259 206z"/>
<path d="M2378 3919 l-3 -182 -75 -19 c-371 -96 -596 -394 -550 -729 15 -107
40 -171 99 -256 98 -139 268 -245 568 -352 151 -54 228 -91 295 -141 165 -123
136 -314 -59 -391 -51 -21 -75 -23 -208 -23 -89 0 -175 5 -210 13 -93 20 -240
69 -323 107 -41 19 -76 33 -78 32 -1 -2 -25 -93 -54 -203 -28 -110 -53 -207
-56 -216 -11 -40 295 -141 496 -163 25 -3 66 -8 93 -11 l47 -6 0 -180 0 -179
185 0 185 0 0 193 0 194 87 22 c372 94 601 377 579 717 -11 168 -55 279 -153
384 -103 112 -211 175 -498 290 -279 111 -366 163 -405 241 -50 97 -5 196 115
251 45 21 64 23 205 23 179 0 255 -14 418 -77 57 -22 105 -38 107 -36 4 3 105
400 105 411 0 34 -275 108 -454 123 l-86 7 -2 166 -3 166 -182 3 -183 2 -2
-181z"/>
</g>
</svg>
