<?xml version="1.0" standalone="no"?>
<!DOCTYPE svg PUBLIC "-//W3C//DTD SVG 20010904//EN"
 "http://www.w3.org/TR/2001/REC-SVG-20010904/DTD/svg10.dtd">
<svg version="1.0" xmlns="http://www.w3.org/2000/svg"
 width="512.000000pt" height="512.000000pt" viewBox="0 0 512.000000 512.000000"
 preserveAspectRatio="xMidYMid meet">

<g transform="translate(0.000000,512.000000) scale(0.100000,-0.100000)"
fill="#000000" stroke="none">
<path d="M2470 4904 c-130 -22 -175 -38 -218 -78 -60 -54 -70 -144 -28 -248
16 -40 20 -60 13 -63 -7 -1 -61 -13 -122 -25 -544 -107 -1062 -461 -1369 -935
-189 -292 -312 -639 -341 -967 l-7 -78 -89 0 c-135 0 -183 -14 -239 -69 -57
-55 -70 -93 -70 -207 0 -107 32 -174 105 -219 l48 -30 434 -5 434 -5 -51 -39
c-29 -22 -132 -137 -231 -257 -99 -120 -183 -220 -187 -223 -4 -2 -29 2 -56
11 -40 13 -56 14 -102 4 -30 -7 -68 -24 -84 -37 -34 -29 -175 -230 -201 -289
-43 -93 -8 -195 89 -262 250 -175 953 -647 980 -659 72 -30 170 -7 226 52 14
16 62 83 106 149 87 132 101 176 80 253 -6 24 -28 61 -48 84 l-37 41 40 34
c59 52 115 82 197 106 105 32 375 31 613 -2 272 -37 420 -24 744 65 295 82
437 142 588 251 127 91 578 498 599 540 13 27 19 60 18 111 l0 72 322 0 322 0
53 28 c81 42 113 100 117 212 5 119 -9 164 -68 221 -57 55 -104 69 -239 69
l-89 0 -7 78 c-10 110 -41 270 -76 392 -38 130 -105 299 -130 324 -23 24 -73
25 -99 1 -30 -27 -25 -71 19 -176 67 -163 120 -374 137 -546 l7 -73 -1733 -2
-1732 -3 -19 -24 c-26 -32 -24 -73 4 -99 l23 -22 1908 -2 1908 -3 19 -24 c14
-18 19 -39 19 -90 0 -58 -3 -71 -23 -89 l-23 -22 -2365 0 -2366 0 -21 23 c-30
32 -32 143 -3 178 l19 24 321 3 320 3 21 26 c23 30 24 42 9 77 -17 36 -57 46
-192 46 l-119 0 6 68 c46 460 250 887 586 1222 663 663 1689 778 2491 280 194
-120 397 -306 538 -493 47 -61 83 -100 98 -103 52 -14 102 37 89 89 -17 71
-265 346 -431 480 -269 217 -596 373 -920 437 -60 12 -115 24 -122 25 -7 3 -3
23 13 63 64 159 13 265 -151 308 -51 14 -231 26 -275 18z m255 -167 c34 -12
40 -19 43 -45 4 -35 -19 -84 -56 -124 -25 -28 -27 -28 -152 -28 -125 0 -127 0
-152 28 -35 37 -58 85 -58 122 0 33 16 43 95 60 56 13 232 4 280 -13z m-877
-2848 c161 -43 309 -79 327 -79 19 0 175 29 347 65 171 36 324 65 340 65 73 0
122 -65 99 -132 -14 -39 -22 -45 -169 -124 -67 -36 -127 -74 -132 -84 -17 -31
-11 -60 16 -87 l25 -25 192 5 192 5 231 69 232 69 253 166 c140 92 266 170
281 173 36 9 78 -31 78 -74 0 -39 -3 -42 -271 -278 -254 -224 -319 -274 -444
-338 -118 -60 -394 -146 -630 -196 -94 -20 -359 -17 -495 6 -170 28 -494 27
-602 -3 -121 -33 -204 -80 -303 -173 l-40 -37 -352 240 -352 239 166 202 c91
111 179 215 197 230 131 119 317 193 456 181 36 -3 197 -41 358 -85z m392 81
c-33 -11 -90 -11 -115 0 -13 6 7 8 60 8 55 0 72 -3 55 -8z m1549 5 c-3 -2 -73
-49 -155 -103 l-151 -99 -211 -62 c-117 -33 -216 -61 -222 -61 -6 0 3 18 19
41 42 57 58 134 42 204 -7 30 -17 57 -22 60 -33 21 20 25 348 25 196 0 354 -2
352 -5z m-3212 -731 c770 -522 863 -587 869 -611 5 -19 -8 -46 -61 -126 -82
-125 -102 -147 -130 -147 -20 0 -938 613 -992 663 -13 11 -23 30 -23 41 0 22
129 219 162 249 11 9 26 17 34 17 8 0 71 -39 141 -86z"/>
</g>
</svg>
