<?xml version="1.0" standalone="no"?>
<!DOCTYPE svg PUBLIC "-//W3C//DTD SVG 20010904//EN"
 "http://www.w3.org/TR/2001/REC-SVG-20010904/DTD/svg10.dtd">
<svg version="1.0" xmlns="http://www.w3.org/2000/svg"
 width="512.000000pt" height="512.000000pt" viewBox="0 0 512.000000 512.000000"
 preserveAspectRatio="xMidYMid meet">

<g transform="translate(0.000000,512.000000) scale(0.100000,-0.100000)"
fill="#000000" stroke="none">
<path d="M2430 4993 c-90 -6 -247 -25 -330 -39 -184 -31 -494 -123 -530 -156
-30 -28 -27 -81 6 -107 15 -12 32 -21 39 -21 6 0 73 20 149 45 143 47 362 95
531 116 129 16 482 16 610 0 155 -19 347 -59 474 -97 588 -179 1076 -551 1347
-1030 239 -422 304 -897 184 -1354 -146 -554 -547 -1023 -1123 -1312 -142 -72
-164 -102 -116 -162 30 -38 65 -33 180 24 717 360 1180 990 1258 1712 55 499
-105 1023 -439 1443 -322 403 -814 715 -1345 850 -291 74 -627 107 -895 88z"/>
<path d="M1005 4889 c-419 -255 -776 -623 -967 -994 -48 -94 -47 -125 3 -151
44 -22 83 -4 111 50 185 363 548 741 925 962 54 32 106 66 116 77 23 26 22 58
-4 91 -33 42 -69 35 -184 -35z"/>
<path d="M257 4718 c-228 -227 -263 -283 -214 -332 48 -48 74 -38 167 67 46
50 125 133 176 182 81 77 94 95 94 123 0 43 -30 72 -75 72 -32 0 -47 -12 -148
-112z"/>
<path d="M1167 4607 c-591 -362 -961 -887 -1062 -1507 -114 -707 188 -1431
799 -1915 l86 -68 -21 -36 c-12 -20 -124 -203 -250 -408 -126 -204 -229 -380
-229 -391 0 -34 11 -52 41 -67 25 -14 37 -13 116 4 360 81 817 261 1126 444
l78 46 82 -19 c364 -87 765 -101 1137 -40 147 24 344 74 377 95 47 31 39 106
-14 126 -21 8 -51 3 -142 -20 -442 -115 -922 -118 -1359 -7 -83 22 -100 23
-122 12 -14 -7 -86 -47 -161 -90 -157 -88 -383 -191 -579 -264 -150 -55 -315
-105 -330 -100 -6 2 76 143 181 313 249 403 252 410 245 440 -4 15 -42 51
-103 97 -260 196 -453 411 -592 657 -302 538 -318 1167 -41 1710 179 352 466
652 825 866 132 78 135 81 135 126 0 28 -6 42 -22 53 -41 29 -77 18 -201 -57z"/>
<path d="M2064 3939 c-42 -21 -44 -44 -44 -428 0 -347 1 -373 21 -437 18 -59
30 -77 89 -136 76 -76 143 -113 240 -130 176 -31 385 74 458 229 l27 58 3 397
c2 276 -1 404 -8 418 -26 49 -105 45 -129 -6 -7 -17 -11 -141 -11 -395 0 -411
1 -407 -66 -471 -91 -87 -230 -109 -332 -53 -66 36 -117 92 -131 142 -7 24
-11 177 -11 404 0 335 -2 369 -17 387 -22 26 -61 35 -89 21z"/>
<path d="M3893 3940 c-43 -17 -44 -31 -41 -440 2 -215 2 -390 1 -390 -1 0
-126 181 -279 403 -152 221 -284 408 -292 415 -28 22 -78 15 -101 -14 -21 -26
-21 -36 -21 -544 0 -491 1 -519 19 -541 23 -28 83 -32 109 -6 15 16 17 55 22
409 l5 391 273 -396 c292 -423 297 -428 361 -406 60 21 60 23 54 574 l-6 500
-28 27 c-29 30 -40 32 -76 18z"/>
<path d="M1181 3914 c-21 -26 -21 -36 -21 -539 0 -503 0 -513 21 -539 27 -34
79 -36 109 -4 19 21 20 34 20 250 l0 228 160 0 c157 0 161 1 185 25 14 13 25
36 25 50 0 14 -11 37 -25 50 -24 24 -28 25 -185 25 l-160 0 0 164 0 165 181 3
c176 3 181 4 200 27 26 32 24 73 -4 99 -23 21 -31 22 -254 22 l-232 0 -20 -26z"/>
<path d="M1165 2505 l-25 -24 0 -434 c0 -424 0 -435 21 -461 15 -19 30 -26 54
-26 24 0 39 7 54 26 20 25 21 40 21 210 l0 184 134 0 c133 0 135 0 155 26 28
36 26 60 -8 95 -29 29 -30 29 -155 29 l-126 0 0 125 0 125 143 0 c137 0 144 1
165 23 31 33 29 80 -4 106 -25 20 -40 21 -216 21 -187 0 -189 0 -213 -25z"/>
<path d="M1996 2508 c-18 -17 -68 -137 -185 -446 -89 -233 -161 -429 -161
-436 0 -29 41 -66 74 -66 48 0 62 16 99 110 l33 85 198 0 199 0 31 -81 c39
-102 49 -114 96 -114 45 0 70 24 70 67 0 17 -70 217 -155 444 -167 444 -175
459 -240 459 -21 0 -43 -9 -59 -22z m133 -424 c34 -89 61 -165 61 -168 0 -3
-61 -6 -135 -6 -74 0 -135 4 -135 9 0 5 15 49 34 97 19 49 49 127 66 173 22
56 35 79 40 70 5 -8 35 -87 69 -175z"/>
<path d="M2840 2507 c-86 -29 -160 -77 -216 -141 -214 -243 -139 -614 154
-759 l85 -42 121 0 c111 0 126 2 179 27 117 55 175 122 155 180 -21 61 -81 64
-142 8 -58 -54 -101 -70 -185 -70 -137 0 -243 65 -303 188 -29 59 -33 76 -33
147 0 71 4 89 33 148 36 72 86 122 161 159 38 19 62 23 141 23 89 0 99 -2 163
-35 64 -32 70 -34 95 -19 37 20 55 60 43 92 -12 31 -81 73 -162 98 -85 27
-205 25 -289 -4z"/>
<path d="M3492 2514 c-33 -23 -31 -86 4 -113 22 -17 41 -21 110 -21 l84 0 0
-384 c0 -373 1 -384 21 -410 26 -33 79 -36 109 -6 19 19 20 33 20 409 l0 389
96 4 c86 3 98 5 115 27 26 32 24 73 -4 99 -23 21 -30 22 -278 22 -214 0 -258
-2 -277 -16z"/>
<path d="M4660 1274 c-80 -81 -262 -237 -356 -304 -393 -280 -859 -456 -1359
-515 -71 -8 -131 -15 -132 -15 -13 0 -43 -50 -43 -70 0 -30 32 -70 58 -71 43
-2 115 3 209 16 643 89 1228 369 1669 798 120 117 134 148 91 191 -42 42 -74
35 -137 -30z"/>
<path d="M4345 604 c-133 -86 -426 -230 -600 -294 -77 -29 -146 -59 -153 -68
-21 -28 -11 -82 20 -105 27 -20 29 -20 85 -3 117 36 322 121 458 191 145 73
329 183 371 222 29 27 31 62 3 97 -34 43 -69 35 -184 -40z"/>
</g>
</svg>
