<?xml version="1.0" standalone="no"?>
<!DOCTYPE svg PUBLIC "-//W3C//DTD SVG 20010904//EN"
 "http://www.w3.org/TR/2001/REC-SVG-20010904/DTD/svg10.dtd">
<svg version="1.0" xmlns="http://www.w3.org/2000/svg"
 width="1280.000000pt" height="853.000000pt" viewBox="0 0 1280.000000 853.000000"
 preserveAspectRatio="xMidYMid meet">

<g transform="translate(0.000000,853.000000) scale(0.100000,-0.100000)"
fill="#FF9933" stroke="none">
<path d="M0 7110 l0 -1420 6400 0 6400 0 0 1420 0 1420 -6400 0 -6400 0 0
-1420z"/>
<g fill="#000080">
<path d="M6270 5574 c-156 -20 -341 -74 -460 -134 -167 -84 -353 -241 -468
-395 -29 -38 -79 -123 -112 -188 -100 -198 -140 -367 -140 -592 0 -225 40
-394 140 -592 71 -141 135 -228 250 -344 179 -178 412 -300 680 -356 115 -24
361 -24 482 0 331 66 620 249 818 517 88 119 173 298 212 445 31 117 32 126
32 330 0 204 -1 213 -32 330 -130 489 -531 864 -1025 960 -81 16 -310 27 -377
19z m230 -189 c0 -8 11 -22 24 -30 19 -13 29 -14 45 -5 12 6 21 15 21 20 0 15
37 12 122 -11 67 -18 78 -24 78 -43 0 -43 47 -61 80 -31 14 13 25 9 95 -33 67
-40 80 -51 80 -74 1 -42 23 -61 66 -54 34 5 39 2 98 -59 55 -57 61 -67 51 -85
-17 -31 11 -70 49 -70 30 0 54 -29 100 -119 22 -41 22 -44 5 -63 -17 -18 -17
-22 -3 -46 8 -15 25 -28 37 -30 26 -4 34 -21 59 -119 16 -64 16 -64 -6 -80
-31 -21 -25 -64 12 -81 27 -13 27 -14 27 -107 0 -93 0 -94 -27 -107 -37 -17
-43 -60 -12 -81 22 -16 22 -16 6 -80 -25 -98 -34 -117 -57 -117 -11 0 -27 -11
-36 -25 -15 -23 -15 -27 0 -50 15 -23 15 -27 -5 -67 -46 -89 -70 -118 -100
-118 -38 0 -66 -39 -49 -70 10 -18 4 -28 -51 -85 -59 -61 -64 -64 -98 -59 -43
7 -65 -12 -66 -54 0 -23 -13 -34 -80 -74 -70 -42 -81 -46 -95 -33 -33 30 -80
12 -80 -31 0 -19 -11 -25 -78 -43 -85 -23 -122 -26 -122 -11 0 5 -9 14 -21 20
-16 9 -26 8 -45 -5 -13 -8 -24 -22 -24 -30 0 -12 -18 -15 -100 -15 -82 0 -100
3 -100 15 0 8 -11 22 -24 30 -19 13 -29 14 -45 5 -12 -6 -21 -15 -21 -20 0
-15 -37 -12 -122 11 -67 18 -78 24 -78 43 0 42 -40 59 -79 34 -16 -10 -29 -7
-73 17 -84 45 -110 66 -103 83 3 8 -2 26 -11 40 -14 21 -21 23 -53 18 -36 -6
-41 -3 -100 59 -55 57 -61 67 -51 85 17 31 -11 70 -49 70 -30 0 -54 29 -100
118 -20 40 -20 44 -5 67 15 23 15 27 0 50 -9 14 -25 25 -36 25 -23 0 -32 19
-57 117 -16 64 -16 64 6 80 31 21 25 64 -11 81 -28 13 -28 14 -28 107 0 93 0
94 28 107 36 17 42 60 11 81 -22 16 -22 16 -6 80 25 98 34 117 57 117 11 0 27
11 36 25 15 23 15 27 0 50 -15 23 -15 27 5 67 46 89 70 118 100 118 38 0 66
39 49 70 -10 18 -4 28 51 85 59 62 64 65 100 59 32 -5 39 -3 53 18 9 14 14 32
11 40 -7 17 19 38 103 83 44 24 57 27 73 17 39 -25 79 -8 79 34 0 19 11 25 78
43 85 23 122 26 122 11 0 -5 9 -14 21 -20 16 -9 26 -8 45 5 13 8 24 22 24 30
0 12 18 15 100 15 82 0 100 -3 100 -15z"/>
</g>
<g fill="#000080">
<path d="M6121 5299 c-1 -3 28 -145 63 -315 50 -242 73 -330 105 -407 33 -81
37 -99 25 -104 -18 -7 -12 -18 -64 107 -33 79 -87 169 -217 365 -95 143 -173
257 -173 252 0 -4 61 -130 136 -280 99 -198 155 -297 205 -365 39 -51 67 -97
63 -103 -10 -17 -19 -8 -96 88 -51 65 -139 150 -295 288 -122 107 -225 195
-228 195 -3 0 87 -105 200 -232 152 -172 229 -251 295 -302 71 -55 88 -72 79
-82 -9 -11 -27 -2 -93 50 -62 48 -153 99 -366 206 -157 78 -280 138 -275 132
6 -5 120 -83 255 -172 182 -122 271 -174 349 -207 58 -24 106 -45 108 -46 1
-2 -2 -9 -7 -16 -7 -12 -27 -6 -109 27 -80 34 -159 54 -391 102 -161 33 -297
60 -303 59 -7 0 112 -43 263 -95 226 -78 297 -99 398 -114 68 -10 127 -21 130
-24 3 -4 1 -11 -5 -17 -7 -7 -44 -6 -117 4 -95 12 -141 12 -389 -4 -155 -10
-300 -19 -322 -22 l-40 -4 45 -2 c25 -1 170 -10 322 -20 244 -15 290 -16 384
-4 73 10 110 11 117 4 6 -6 8 -13 5 -17 -3 -3 -62 -14 -130 -24 -101 -15 -172
-36 -398 -114 -151 -52 -270 -95 -263 -95 6 -1 142 26 303 59 232 48 311 68
391 102 82 33 102 39 109 27 5 -7 8 -14 7 -16 -2 -1 -50 -22 -108 -46 -78 -33
-167 -85 -349 -207 -135 -89 -249 -167 -255 -172 -5 -6 118 54 275 132 213
107 304 158 366 206 66 52 84 61 93 50 9 -10 -8 -27 -79 -82 -66 -51 -143
-130 -295 -301 -113 -128 -203 -233 -200 -233 3 0 106 88 228 195 156 138 244
223 295 288 77 96 86 105 96 88 4 -6 -24 -52 -63 -103 -50 -68 -106 -167 -205
-365 -75 -150 -136 -276 -136 -280 0 -5 78 109 173 253 129 194 184 286 217
365 52 124 46 113 64 106 12 -5 8 -23 -25 -104 -32 -77 -55 -165 -105 -407
-35 -170 -64 -312 -63 -315 0 -3 45 125 100 284 84 244 102 309 116 408 14
102 18 117 35 117 14 0 17 -5 14 -22 -25 -116 -27 -212 -10 -495 10 -161 21
-293 24 -293 3 0 14 132 24 293 17 283 15 379 -10 495 -3 17 0 22 14 22 17 0
21 -15 35 -117 14 -99 32 -164 116 -408 55 -159 100 -287 100 -284 1 3 -28
145 -63 315 -50 242 -73 330 -105 407 -33 81 -37 99 -25 104 18 7 12 18 64
-107 33 -79 87 -169 217 -365 95 -143 173 -257 173 -252 0 4 -61 130 -136 280
-99 198 -155 297 -205 365 -39 51 -67 97 -63 103 10 17 20 8 91 -83 47 -60
138 -148 295 -287 125 -111 230 -201 233 -201 3 0 -87 105 -200 233 -152 171
-229 250 -295 301 -70 53 -88 72 -79 82 8 10 30 -1 102 -55 68 -51 168 -107
377 -211 157 -78 281 -138 275 -133 -5 6 -125 86 -265 178 -180 119 -285 181
-355 211 -59 25 -101 49 -103 58 -5 23 3 21 114 -25 78 -32 160 -53 393 -100
162 -32 296 -57 298 -55 2 1 -126 46 -284 99 -229 76 -310 99 -396 111 -114
15 -128 19 -110 37 8 8 41 7 120 -3 97 -13 136 -13 388 3 154 10 298 19 320
20 65 3 11 8 -305 28 -265 16 -306 16 -403 3 -79 -10 -112 -11 -120 -3 -18 18
-4 22 110 37 86 12 167 35 396 111 158 53 286 98 284 99 -2 2 -136 -23 -298
-55 -233 -47 -315 -68 -393 -100 -111 -46 -119 -48 -114 -25 2 9 44 33 103 58
70 30 175 92 355 211 140 92 260 172 265 178 6 5 -118 -55 -275 -133 -209
-104 -309 -160 -377 -211 -72 -54 -94 -65 -102 -55 -9 10 9 29 79 82 66 51
143 130 295 302 113 127 203 232 200 232 -3 0 -108 -90 -233 -201 -157 -139
-248 -227 -295 -287 -71 -91 -81 -100 -91 -83 -4 6 24 52 63 103 50 68 106
167 205 365 75 150 136 276 136 280 0 5 -78 -109 -173 -252 -130 -196 -184
-286 -217 -365 -52 -125 -46 -114 -64 -107 -12 5 -7 25 28 114 40 98 89 309
162 693 3 14 -41 -105 -96 -265 -86 -246 -103 -308 -117 -407 -14 -103 -18
-118 -35 -118 -14 0 -17 5 -14 23 25 115 27 211 10 494 -10 161 -21 293 -24
293 -3 0 -14 -132 -24 -293 -17 -283 -15 -379 10 -494 3 -18 0 -23 -14 -23
-17 0 -21 15 -35 118 -14 98 -32 163 -116 407 -55 160 -100 287 -100 284z"/>
</g>
<g fill="#138808">
<path d="M0 1420 l0 -1420 6400 0 6400 0 0 1420 0 1420 -6400 0 -6400 0 0
-1420z"/>
</g>
</g>
</svg>
