<?xml version="1.0" standalone="no"?>
<!DOCTYPE svg PUBLIC "-//W3C//DTD SVG 20010904//EN"
 "http://www.w3.org/TR/2001/REC-SVG-20010904/DTD/svg10.dtd">
<svg version="1.0" xmlns="http://www.w3.org/2000/svg"
 width="200.000000pt" height="200.000000pt" viewBox="0 0 200.000000 200.000000"
 preserveAspectRatio="xMidYMid meet">

<g transform="translate(0.000000,200.000000) scale(0.100000,-0.100000)"
fill="#000000" stroke="none">
<path d="M411 1490 c-49 -12 -113 -60 -138 -105 -52 -92 -38 -191 36 -265 144
-144 376 -47 375 156 -1 103 -59 179 -161 210 -51 15 -62 16 -112 4z"/>
<path d="M955 1491 c-148 -37 -217 -188 -147 -322 40 -77 102 -114 192 -114
57 0 74 5 115 30 117 72 140 240 47 338 -52 55 -142 84 -207 68z"/>
<path d="M1473 1486 c-99 -32 -156 -109 -157 -210 -1 -203 231 -300 375 -156
111 111 80 283 -66 358 -36 18 -108 22 -152 8z"/>
<path d="M365 960 c-58 -18 -140 -75 -176 -124 -51 -68 -69 -130 -69 -242 l0
-94 234 0 234 0 3 114 c4 111 5 116 46 196 23 46 40 87 37 92 -3 4 -29 20 -57
35 -42 21 -68 27 -137 29 -47 2 -98 -1 -115 -6z"/>
<path d="M873 949 c-76 -29 -154 -104 -188 -181 -24 -52 -29 -81 -33 -165 l-5
-103 353 0 353 0 -5 104 c-4 92 -8 113 -37 170 -39 79 -111 147 -187 175 -73
28 -180 27 -251 0z"/>
<path d="M1440 961 c-36 -11 -108 -49 -114 -59 -3 -5 14 -46 37 -92 41 -80 42
-85 46 -196 l3 -114 235 0 235 0 -4 113 c-3 98 -7 119 -31 164 -39 75 -78 115
-149 153 -55 30 -74 34 -148 37 -47 1 -96 -1 -110 -6z"/>
</g>
</svg>
