<?xml version="1.0" standalone="no"?>
<!DOCTYPE svg PUBLIC "-//W3C//DTD SVG 20010904//EN"
 "http://www.w3.org/TR/2001/REC-SVG-20010904/DTD/svg10.dtd">
<svg version="1.0" xmlns="http://www.w3.org/2000/svg"
 width="512.000000pt" height="512.000000pt" viewBox="0 0 512.000000 512.000000"
 preserveAspectRatio="xMidYMid meet">

<g transform="translate(0.000000,512.000000) scale(0.100000,-0.100000)"
fill="#000000" stroke="none">
<path d="M3695 5097 c-36 -8 -230 -199 -1829 -1796 -983 -982 -1801 -1806
-1817 -1830 -31 -48 -38 -106 -18 -158 13 -37 1211 -1237 1267 -1270 60 -36
133 -30 191 16 61 48 3570 3571 3592 3606 23 37 25 105 3 148 -19 37 -1203
1228 -1252 1259 -45 28 -89 36 -137 25z m540 -867 l490 -490 -1673 -1673
-1672 -1672 -492 492 -493 493 115 115 c63 63 119 115 124 115 5 0 84 -74 175
-164 138 -136 172 -164 203 -170 123 -23 221 94 178 211 -6 15 -84 101 -173
191 l-162 162 97 97 97 97 163 -161 c175 -172 207 -193 282 -179 66 12 126 82
126 146 0 62 -30 104 -188 263 l-157 157 97 97 98 98 307 -306 c282 -281 311
-307 349 -312 127 -20 221 99 170 216 -8 18 -145 162 -305 322 -160 159 -291
294 -291 300 0 6 42 52 93 103 l92 92 150 -151 c83 -82 165 -159 183 -170 40
-26 106 -28 149 -6 42 22 79 73 85 117 10 71 -13 106 -182 275 l-160 160 97
97 97 98 171 -169 c150 -149 175 -169 210 -174 47 -8 101 5 131 31 49 41 68
124 44 188 -6 15 -82 100 -170 189 l-160 161 95 94 95 95 288 -286 c158 -157
301 -296 319 -308 39 -27 107 -30 151 -7 41 21 78 72 84 116 11 78 3 88 -315
408 l-302 302 97 97 97 97 169 -166 c180 -179 196 -189 279 -173 50 9 109 69
118 119 15 77 -4 108 -178 284 l-161 163 184 184 c102 102 187 185 190 185 3
0 226 -221 495 -490z"/>
</g>
</svg>
