<?xml version="1.0" standalone="no"?>
<!DOCTYPE svg PUBLIC "-//W3C//DTD SVG 20010904//EN"
 "http://www.w3.org/TR/2001/REC-SVG-20010904/DTD/svg10.dtd">
<svg version="1.0" xmlns="http://www.w3.org/2000/svg"
 width="1500.000000pt" height="750.000000pt" viewBox="0 0 1500.000000 750.000000"
 preserveAspectRatio="xMidYMid meet">

<g transform="translate(0.000000,750.000000) scale(0.100000,-0.100000)"
fill="#012169" stroke="none">
<path fill="#C8102E" d="M0 7220 l0 -280 1940 -970 1940 -970 555 2 555 3 -2495 1247 -2495
1248 0 -280z"/>
<path d="M3960 6360 c1251 -626 2278 -1139 2283 -1139 4 -1 7 512 7 1139 l0
1140 -2282 -1 -2283 0 2275 -1139z"/>
<path fill="#C8102E" d="M6750 6000 l0 -1500 -3375 0 -3375 0 0 -750 0 -750 3375 0 3375 0 0
-1500 0 -1500 750 0 750 0 0 1500 0 1500 3375 0 3375 0 0 750 0 750 -3375 0
-3375 0 0 1500 0 1500 -750 0 -750 0 0 -1500z"/>
<path d="M8750 6360 c0 -627 3 -1140 8 -1139 4 0 1031 513 2282 1139 l2275
1139 -2282 0 -2283 1 0 -1140z"/>
<path fill="#C8102E" d="M11380 6250 l-2495 -1249 560 0 560 0 2495 1249 2495 1249 -560 0
-560 0 -2495 -1249z"/>
<path d="M0 5830 l0 -830 1657 0 c911 0 1654 2 1652 4 -2 2 -748 376 -1656
830 l-1653 826 0 -830z"/>
<path d="M13340 5830 l-1655 -829 1658 0 1657 -1 0 830 c0 457 -1 830 -2 829
-2 0 -748 -373 -1658 -829z"/>
<path d="M0 1670 l0 -830 1653 826 c908 454 1654 828 1656 830 2 2 -741 4
-1652 4 l-1657 0 0 -830z"/>
<path fill="#C8102E" d="M2500 1250 l-2495 -1249 560 0 560 0 2495 1249 2495 1249 -560 0
-560 0 -2495 -1249z"/>
<path fill="#C8102E" d="M10011 2496 c2 -2 1126 -565 2497 -1250 l2492 -1246 0 280 0 280
-1940 970 -1940 970 -557 0 c-306 0 -554 -2 -552 -4z"/>
<path d="M11691 2496 c2 -2 748 -376 1657 -830 l1652 -826 0 830 0 830 -1657
0 c-911 0 -1654 -2 -1652 -4z"/>
<path d="M3960 1140 l-2275 -1139 2283 0 2282 -1 0 1140 c0 627 -3 1140 -7
1139 -5 0 -1032 -513 -2283 -1139z"/>
<path d="M8750 1140 l0 -1140 2283 1 2282 0 -2275 1139 c-1251 626 -2278 1139
-2282 1139 -5 1 -8 -512 -8 -1139z"/>
</g>
</svg>
